<svg width="695" height="684" viewBox="0 0 695 684" fill="none" xmlns="http://www.w3.org/2000/svg">
<g id="Cancer_cell 1">
<path id="Vector" d="M574.39 338.364L574.87 337.763C575.545 336.918 576.377 335.975 577.335 334.888C577.951 334.189 578.618 333.431 579.331 332.602C581.083 330.563 582.987 328.221 584.547 325.761C586.094 323.323 587.414 320.599 587.826 317.798C588.253 314.897 587.694 311.936 585.549 309.313C582.166 305.179 578.348 302.573 574.497 300.353C573.199 299.604 571.934 298.917 570.685 298.238C568.132 296.852 565.648 295.502 563.08 293.737C562.799 293.543 562.496 293.337 562.176 293.12C559.895 291.569 556.732 289.417 554.165 286.914C552.708 285.493 551.571 284.076 550.91 282.729C550.264 281.412 550.136 280.304 550.43 279.311C550.806 278.042 551.486 276.513 552.322 274.644L552.325 274.639C553.128 272.842 554.045 270.792 554.728 268.714C556.06 264.662 556.822 259.538 553.08 255.509C551.916 254.255 550.362 252.937 548.822 251.647C548.653 251.506 548.485 251.364 548.315 251.223C546.89 250.031 545.444 248.823 544.093 247.554C540.937 244.589 539.021 241.928 538.927 239.499C538.648 232.246 544.066 227.756 550.457 222.707V222.706L550.841 222.403L550.842 222.402C552.982 220.71 555.416 218.691 557.608 216.503C559.778 214.337 561.834 211.885 563.097 209.306C564.372 206.704 564.964 203.687 563.666 200.714C562.399 197.812 559.582 195.55 555.431 193.809C543.187 188.675 530.023 189.691 517.488 190.695L517.191 190.719C504.542 191.733 492.5 192.697 481.247 188.462C466.661 182.973 460.491 169.554 454.436 154.896C448.539 140.619 434.656 132.764 421.513 128.052C420.538 127.703 419.692 127.405 418.951 127.144C417.47 126.623 416.409 126.249 415.581 125.908C414.358 125.404 414.161 125.162 414.091 125.069C413.945 124.874 413.792 124.523 413.404 123.051C413.371 122.926 413.337 122.795 413.301 122.66C412.954 121.333 412.475 119.501 411.615 117.007C411.105 115.528 409.999 114.326 408.832 113.377C407.629 112.397 406.13 111.501 404.493 110.692C401.213 109.072 397.091 107.663 392.927 106.605C388.758 105.544 384.438 104.808 380.738 104.577C378.889 104.462 377.138 104.469 375.609 104.645C374.133 104.815 372.615 105.168 371.419 105.921C369.133 107.361 367.071 108.697 365.17 109.929C359.261 113.758 354.916 116.575 350.254 118.327C344.354 120.546 337.896 121.032 327.07 118.867C319.919 117.437 311.447 113.269 306.017 108.411C304.111 106.705 301.24 105.592 298.488 105.098C295.74 104.604 292.576 104.631 290.053 105.752C288.666 106.369 287.243 106.648 285.493 106.974L285.37 106.997C283.771 107.295 281.897 107.644 279.977 108.435C277.218 109.107 274.79 110.754 272.707 112.732C270.555 114.776 268.631 117.307 266.946 119.879C264.566 123.512 262.487 127.526 260.918 130.558C260.3 131.75 259.761 132.79 259.314 133.596C258.713 134.678 258.243 135.791 257.833 136.826C257.687 137.195 257.553 137.544 257.422 137.881C257.169 138.538 256.932 139.15 256.663 139.78C255.877 141.615 255.032 143.034 253.673 144.091C251.616 145.691 249.227 146.431 246.434 146.97C245.667 147.118 244.829 147.254 243.952 147.398C241.847 147.741 239.519 148.121 237.406 148.781C235.822 149.276 234.063 149.591 232.115 149.885C231.674 149.952 231.22 150.018 230.756 150.086C229.237 150.307 227.623 150.542 226.06 150.859C221.932 151.695 217.538 153.206 214.267 157.203C212.257 159.66 210.146 162.137 208.016 164.635C204.987 168.188 201.923 171.783 199.067 175.417C197.259 177.719 193.803 180.029 189.752 181.778C185.727 183.516 181.517 184.527 178.454 184.527C177.9 184.527 177.293 184.524 176.644 184.521C173.524 184.505 169.417 184.483 165.396 184.781C160.655 185.131 155.45 185.949 152.017 188.134C145.91 192.02 140.919 197.725 141.356 206.033C141.439 207.623 142.15 209.231 142.908 210.601C143.698 212.032 144.724 213.52 145.742 214.925C146.266 215.65 146.744 216.293 147.205 216.913C147.717 217.603 148.208 218.265 148.72 218.979C149.64 220.262 150.313 221.295 150.68 222.071C152.641 226.21 153.081 229.651 152.675 232.709C152.262 235.812 150.952 238.725 149.084 241.767C147.826 243.815 146.413 245.777 144.908 247.866C144.122 248.958 143.311 250.084 142.484 251.275C140.142 254.648 137.817 258.357 136.202 262.615C135.511 264.436 134.748 266.231 133.964 268.076L133.924 268.169C133.133 270.03 132.321 271.943 131.589 273.893C130.123 277.803 128.931 281.985 128.771 286.623C128.603 291.512 129.859 296.18 131.557 300.502C132.838 303.759 134.431 306.962 135.916 309.945C136.382 310.883 136.838 311.798 137.27 312.687C140.513 319.365 140.906 325.842 137.613 331.771C136.561 333.663 135.06 334.984 133.179 336.639C132.965 336.827 132.746 337.02 132.521 337.219C130.418 339.083 128.029 341.359 126.688 344.979C126.476 345.554 126.257 346.132 126.037 346.714C124.772 350.054 123.466 353.506 123.055 356.912C122.544 361.156 123.384 365.386 126.78 369.751C134.216 379.312 138.836 388.278 138.836 400.232C138.836 413.365 132.099 424.172 122.144 432.883C120.103 434.669 117.68 435.496 114.768 436.489C114.007 436.748 113.214 437.019 112.385 437.321C108.569 438.712 104.42 440.73 102.022 445.87C97.7525 455.018 102.892 465.744 112.508 467.492C116.554 468.228 120.807 466.454 124.279 464.604C126.03 463.67 127.741 462.626 129.288 461.681L129.419 461.601C131.037 460.613 132.436 459.765 133.646 459.16C136.911 457.527 140.295 455.946 143.625 455.25C146.893 454.568 149.884 454.786 152.566 456.51C160.161 461.392 166.216 468.144 168.567 476.542C170.285 482.677 169.994 487.453 168.897 492.243C168.337 494.687 167.57 497.128 166.716 499.824L166.663 499.993C165.832 502.617 164.933 505.457 164.146 508.605C163.831 509.863 163.475 511.15 163.115 512.452C162.123 516.041 161.101 519.741 160.825 523.26C160.425 528.355 161.509 533.406 165.878 538.4C169.322 542.336 173.949 543.428 178.325 543.171C182.648 542.917 186.944 541.35 190.268 539.688C196.774 536.435 201.343 531.054 205.543 526.085L205.638 525.972C209.91 520.918 213.826 516.283 219.21 513.367C225.634 509.887 232.439 511.266 238.733 515.304C245.058 519.363 250.468 525.901 253.555 531.766C255.799 536.029 257.464 540.762 259.111 545.675C259.288 546.202 259.464 546.731 259.641 547.262C261.094 551.619 262.585 556.092 264.472 560.208C266.602 564.853 269.307 569.217 273.22 572.667C277.163 576.145 282.205 578.581 288.815 579.561C301.879 581.496 309.75 578.752 320.965 573.705C333.732 567.96 345.937 563.141 359.773 562.034C364.744 561.636 369.618 562.385 374.74 563.355C375.501 563.499 376.269 563.649 377.045 563.8C381.398 564.647 385.97 565.537 390.64 565.744C392.831 565.842 395.204 566.126 397.751 566.455C398.075 566.496 398.402 566.539 398.732 566.582C400.958 566.871 403.298 567.175 405.629 567.373C410.946 567.824 416.644 567.772 421.685 565.531C429.549 562.036 438.171 562.007 447.39 561.975C448.222 561.973 449.058 561.97 449.899 561.964C459.836 561.901 470.361 561.457 479.656 555.261C484.091 552.304 486.998 549.003 488.936 545.415C490.857 541.857 491.756 538.142 492.344 534.479C492.639 532.64 492.86 530.839 493.078 529.06C493.753 523.55 494.401 518.259 497.143 512.776C503.207 500.646 513.926 495.267 526.329 489.041C527.542 488.432 528.771 487.815 530.013 487.183C530.462 486.955 530.912 486.727 531.361 486.5C539.401 482.436 547.282 478.451 551.076 468.208C552.485 464.405 552.677 460.028 552.589 455.81C552.55 453.947 552.461 452.174 552.375 450.443C552.254 448.02 552.137 445.678 552.165 443.281C552.211 439.302 552.686 435.96 554.044 433.382C555.329 430.943 557.525 428.958 561.601 427.885C563.873 427.287 566.135 426.78 568.424 426.267L568.552 426.239C570.869 425.719 573.218 425.191 575.541 424.568C580.202 423.317 584.871 421.655 589.37 418.763C592.417 416.803 593.822 414.1 593.579 411.067C593.359 408.327 591.817 405.745 590.087 403.625C586.593 399.346 581.227 395.633 578.407 394.275C567.948 389.239 559.201 380.761 559.201 369.405C559.201 357.484 566.655 348.026 574.39 338.364Z" stroke="#1E1E1E" style="stroke:#1E1E1E;stroke:color(display-p3 0.1176 0.1176 0.1176);stroke-opacity:1;" stroke-width="20" stroke-linecap="round"/>
<path id="Vector_2" d="M335.706 267.45C335.537 267.549 335.4 267.63 335.299 267.691C330.531 269.578 325.664 272.769 322.051 276.382C317.877 280.556 314.062 284.714 310.157 289.078C307.505 292.043 305.935 296.25 304.636 300.038C304.433 300.628 304.237 301.21 304.044 301.781C302.927 305.09 301.929 308.046 300.55 310.344C296.376 317.301 292.25 321.391 286.748 326.844C286.001 327.585 285.227 328.351 284.425 329.154C284.147 329.432 283.869 329.709 283.593 329.985C281.273 332.3 279.05 334.519 277.208 336.673C275.146 339.084 273.397 341.598 272.468 344.34C271.511 347.167 271.465 350.124 272.62 353.271C273.746 356.339 275.969 359.467 279.323 362.822C280.129 363.627 280.926 364.405 281.704 365.166C286.977 370.314 291.431 374.664 292.407 381.496C293.322 387.904 292.37 391.923 291.107 397.25C290.605 399.367 290.054 401.689 289.552 404.45C288.812 408.524 289.444 412.92 290.866 416.897C292.29 420.88 294.57 424.622 297.339 427.391C300.947 430.999 304.206 432.519 307.552 433.581C308.625 433.922 309.637 434.201 310.639 434.477C312.809 435.076 314.933 435.662 317.531 436.831C320.347 438.098 323.915 438.77 327.325 439.141C330.779 439.516 334.275 439.602 337.051 439.602C339.501 439.602 341.688 440.541 344.088 441.967C344.882 442.438 345.628 442.918 346.413 443.422C346.851 443.703 347.301 443.992 347.778 444.292C349.052 445.092 350.426 445.907 351.899 446.561C353.132 447.109 354.336 447.715 355.548 448.326C359.988 450.562 364.535 452.852 370.982 452.513C375.606 452.269 379.701 449.826 383.147 447.198C384.895 445.865 386.565 444.413 388.11 443.063L388.283 442.912C389.786 441.599 391.154 440.404 392.457 439.407C395.693 436.932 398.99 435.735 402.569 434.785C403.544 434.526 404.574 434.28 405.64 434.024C408.362 433.373 411.324 432.664 414.236 431.544C417.418 430.32 420.511 430.193 424.006 430.05C425.11 430.005 426.255 429.958 427.455 429.874C432.313 429.535 437.492 428.522 442.289 423.724C454.621 411.392 456.744 391.725 451.839 375.783C449.664 368.715 451.829 363.528 454.952 357.909C455.349 357.195 455.768 356.468 456.195 355.724C459.051 350.758 462.313 345.085 462.313 338.016C462.313 336.387 462.448 334.791 462.611 333.138C462.638 332.864 462.666 332.587 462.695 332.308C462.834 330.935 462.979 329.501 463.046 328.077C463.209 324.572 462.917 320.857 460.933 316.89C458.163 311.351 454.638 306.575 449.421 303.026C448.688 302.528 447.887 302.023 447.039 301.488C445.606 300.583 444.036 299.593 442.43 298.406C441.217 297.51 440.144 296.609 439.325 295.729C438.484 294.826 438.056 294.098 437.903 293.566C437.518 292.217 437.241 290.678 436.929 288.945C436.791 288.18 436.647 287.377 436.483 286.536C435.983 283.967 435.307 281.09 434.018 278.769C431.491 274.22 428.23 269.376 423.878 266.382C419.326 263.25 413.732 262.255 407.142 265.184C398.732 268.921 388.1 271.026 378.742 271.026C377.068 271.026 374.33 270.919 371.739 270.564C370.443 270.386 369.239 270.154 368.248 269.864C367.204 269.557 366.629 269.252 366.393 269.055C365.98 268.711 365.531 268.291 364.971 267.768L364.891 267.693C364.315 267.155 363.65 266.537 362.918 265.922C361.452 264.692 359.623 263.394 357.358 262.568C354.917 261.679 352.246 261.687 349.782 262.062C347.296 262.44 344.833 263.222 342.694 264.063C340.544 264.908 338.656 265.84 337.308 266.559C336.632 266.919 336.087 267.228 335.706 267.45Z" stroke="#1E1E1E" style="stroke:#1E1E1E;stroke:color(display-p3 0.1176 0.1176 0.1176);stroke-opacity:1;" stroke-width="15" stroke-linecap="round"/>
</g>
</svg>
