<svg width="695" height="684" viewBox="0 0 695 684" fill="none" xmlns="http://www.w3.org/2000/svg">
<g id="Endothelial_cell 1">
<path id="Vector" d="M593 380.752C593 513.44 494.786 625 345.865 625C209.376 625 103 513.44 103 380.752C103 248.065 209.376 133 345.865 133C482.354 133 593 248.065 593 380.752Z" stroke="#1E1E1E" style="stroke:#1E1E1E;stroke:color(display-p3 0.1176 0.1176 0.1176);stroke-opacity:1;" stroke-width="20"/>
<path id="Vector_2" d="M538 432.973C538 524.652 453.382 598.973 349 598.973C244.618 598.973 160 524.652 160 432.973C160 341.294 173 216.973 349 277.473C484 204.973 538 341.294 538 432.973Z" stroke="#1E1E1E" style="stroke:#1E1E1E;stroke:color(display-p3 0.1176 0.1176 0.1176);stroke-opacity:1;" stroke-width="20"/>
<path id="Vector_3" d="M404.5 206.5C404.5 215.083 398.705 223.278 388.43 229.46C378.204 235.613 363.916 239.5 348 239.5C332.084 239.5 317.796 235.613 307.57 229.46C297.295 223.278 291.5 215.083 291.5 206.5C291.5 197.917 297.295 189.722 307.57 183.54C317.796 177.387 332.084 173.5 348 173.5C363.916 173.5 378.204 177.387 388.43 183.54C398.705 189.722 404.5 197.917 404.5 206.5Z" stroke="black" style="stroke:black;stroke-opacity:1;" stroke-width="15"/>
</g>
</svg>
