<svg width="695" height="684" viewBox="0 0 695 684" fill="none" xmlns="http://www.w3.org/2000/svg">
<g id="fibroblast5 1" clip-path="url(#clip0_84_195)">
<g id="Group">
<path id="Vector" d="M366.161 288.5C272.349 215.753 197.595 233.942 155.159 223.433C153.992 223.144 170.346 276.529 273.171 366.393C382.478 461.923 606.152 496.157 605.144 495.559C587.324 484.994 568.841 469.555 536.578 446.297C494.796 416.178 469.044 368.282 366.161 288.5Z" stroke="#1E1E1E" style="stroke:#1E1E1E;stroke:color(display-p3 0.1176 0.1176 0.1176);stroke-opacity:1;" stroke-width="20"/>
<path id="Vector_2" d="M390.866 377.727C389.774 379.138 387.819 380.134 384.709 380.372C381.599 380.61 377.617 380.056 372.982 378.655C363.728 375.859 352.391 369.851 341.248 361.229C330.106 352.606 321.447 343.138 316.419 334.883C313.9 330.746 312.365 327.03 311.815 323.96C311.265 320.89 311.739 318.748 312.831 317.337C313.923 315.926 315.878 314.93 318.988 314.692C322.098 314.453 326.08 315.008 330.715 316.409C339.969 319.204 351.307 325.212 362.449 333.835C373.59 342.457 382.25 351.925 387.278 360.181C389.796 364.318 391.333 368.033 391.882 371.103C392.431 374.174 391.958 376.316 390.866 377.727Z" stroke="#1E1E1E" style="stroke:#1E1E1E;stroke:color(display-p3 0.1176 0.1176 0.1176);stroke-opacity:1;" stroke-width="15"/>
<g id="Group_2">
<path id="F" d="M555.277 190.181H483.109V223.287H546.293V248.287H483.109V308.638H453.227V164.888H555.277V190.181Z" fill="black" style="fill:black;fill-opacity:1;"/>
<path id="5" d="M614.76 336.638C584.96 336.638 573.16 321.838 567.76 307.638L597.36 295.038C600.76 305.038 606.56 311.838 616.76 311.838C628.16 311.838 633.76 303.838 633.76 290.638C633.76 276.238 627.16 268.438 614.96 268.438C608.56 268.438 603.56 271.238 599.96 275.038L574.96 266.238L580.76 196.438H656.56V221.238H607.36L604.36 250.438H605.16C608.76 247.638 616.76 245.238 622.76 245.238C651.16 245.238 663.56 260.438 663.56 286.838C663.56 316.438 645.76 336.638 614.76 336.638Z" fill="black" style="fill:black;fill-opacity:1;"/>
</g>
</g>
</g>
<defs>
<clipPath id="clip0_84_195">
<rect width="695" height="684" fill="white" style="fill:white;fill-opacity:1;"/>
</clipPath>
</defs>
</svg>
