<svg width="695" height="684" viewBox="0 0 695 684" fill="none" xmlns="http://www.w3.org/2000/svg">
<g id="fibroblast3 1" clip-path="url(#clip0_84_179)">
<g id="Group">
<path id="Vector" d="M366.161 288.5C272.349 215.753 197.595 233.942 155.159 223.433C153.992 223.144 170.346 276.529 273.171 366.393C382.478 461.923 606.152 496.157 605.144 495.559C587.324 484.994 568.841 469.555 536.578 446.297C494.796 416.178 469.044 368.282 366.161 288.5Z" stroke="#1E1E1E" style="stroke:#1E1E1E;stroke:color(display-p3 0.1176 0.1176 0.1176);stroke-opacity:1;" stroke-width="20"/>
<path id="Vector_2" d="M390.866 377.727C389.774 379.139 387.819 380.135 384.709 380.372C381.599 380.61 377.617 380.056 372.982 378.656C363.728 375.859 352.391 369.852 341.248 361.229C330.106 352.607 321.447 343.139 316.419 334.883C313.9 330.746 312.365 327.031 311.815 323.961C311.265 320.89 311.739 318.749 312.831 317.337C313.923 315.926 315.878 314.93 318.988 314.692C322.098 314.453 326.08 315.009 330.715 316.409C339.969 319.205 351.307 325.212 362.449 333.835C373.59 342.457 382.25 351.926 387.278 360.182C389.796 364.318 391.333 368.033 391.882 371.103C392.431 374.174 391.958 376.316 390.866 377.727Z" stroke="#1E1E1E" style="stroke:#1E1E1E;stroke:color(display-p3 0.1176 0.1176 0.1176);stroke-opacity:1;" stroke-width="15"/>
<g id="Group_2">
<path id="F" d="M555.277 190.182H483.109V223.287H546.293V248.287H483.109V308.639H453.227V164.889H555.277V190.182Z" fill="black" style="fill:black;fill-opacity:1;"/>
<path id="3" d="M632.96 262.039V262.839C645.76 264.039 658.76 271.639 658.76 292.239C658.76 321.239 638.96 336.639 608.16 336.639C582.76 336.639 567.56 322.639 562.36 307.639L590.56 294.839C593.36 301.439 599.36 311.839 611.96 311.839C623.56 311.839 628.96 305.639 628.96 293.639C628.96 283.439 621.76 277.239 605.36 277.239H596.16V252.439H605.16C618.36 252.439 623.96 247.439 623.96 234.439C623.96 224.439 619.56 219.239 610.16 219.239C601.36 219.239 596.16 225.239 595.96 235.239L566.96 232.639C567.76 211.439 582.76 194.439 609.96 194.439C638.96 194.439 653.76 206.639 653.76 231.839C653.76 247.839 644.56 258.239 632.96 262.039Z" fill="black" style="fill:black;fill-opacity:1;"/>
</g>
</g>
</g>
<defs>
<clipPath id="clip0_84_179">
<rect width="695" height="684" fill="white" style="fill:white;fill-opacity:1;"/>
</clipPath>
</defs>
</svg>
