<svg width="695" height="684" viewBox="0 0 695 684" fill="none" xmlns="http://www.w3.org/2000/svg">
<g id="Macrophage 1">
<path id="Vector" d="M460.655 567.364C462.715 564.789 464.5 563 467.5 559.5C468.447 558.395 508.881 529.128 508.881 529.128C508.881 529.128 398.756 476.26 398.756 442.579C398.756 408.898 388.905 377.284 407.06 342C425.215 306.716 444.198 295.36 466.698 272.07C489.198 248.779 581.803 283.347 571.488 267.138C552.784 237.746 563.247 211.594 563.247 183.855C563.247 140.03 511.853 144.632 480.758 139.144C458.712 135.254 436.215 129.449 417.677 116.615C403.908 107.083 391.001 95.9419 376.432 87.8479C333.155 63.8049 296.016 87.5579 254.95 105.524C235.08 114.217 214.015 123.057 192.39 126.147C165.295 130.017 130.867 134.016 109.553 152.488C79.487 178.545 77.606 211.23 73.161 249.015C69.773 277.808 73.984 314.51 61.376 341.21C52.283 360.467 36.869 379.558 30.876 399.784C25.301 418.598 42.452 444.899 54.444 457.319C69.165 472.565 89.448 492.915 92.743 514.334C95.176 530.149 103.938 549.271 117.525 558.005C133.147 568.048 149.021 570.239 165.875 576.722C184.349 583.827 197.77 591.803 214.399 601.503C260.457 628.371 310.785 603.766 357.023 590.066C373.959 585.047 392.305 590.759 410.052 590.759C424.502 590.759 451.539 578.759 460.655 567.364Z" stroke="#1E1E1E" style="stroke:#1E1E1E;stroke:color(display-p3 0.1176 0.1176 0.1176);stroke-opacity:1;" stroke-width="20" stroke-linecap="round" stroke-linejoin="round"/>
<g id="Group">
<path id="Vector_2" d="M249.15 470.264C231.361 480.534 209.332 480.009 187.91 470.455C166.49 460.902 145.873 442.383 131.265 417.081C116.657 391.779 110.927 364.664 113.364 341.338C115.801 318.009 126.361 298.668 144.15 288.398C161.938 278.128 183.967 278.653 205.389 288.207C226.809 297.76 247.426 316.279 262.034 341.581C276.642 366.883 282.372 393.998 279.935 417.324C277.498 440.653 266.938 459.994 249.15 470.264Z" stroke="#1E1E1E" style="stroke:#1E1E1E;stroke:color(display-p3 0.1176 0.1176 0.1176);stroke-opacity:1;" stroke-width="15"/>
</g>
<g id="Group_2">
<path id="Vector_3" d="M560.826 362.464C560.826 367.052 559.012 371.256 556.01 374.333C553.009 377.41 548.843 379.33 544.223 379.33C539.604 379.33 535.438 377.41 532.436 374.333C529.434 371.256 527.621 367.052 527.621 362.464C527.621 357.875 529.434 353.672 532.436 350.595C535.438 347.518 539.604 345.598 544.223 345.598C548.843 345.598 553.009 347.518 556.01 350.595C559.012 353.672 560.826 357.875 560.826 362.464Z" stroke="#1E1E1E" style="stroke:#1E1E1E;stroke:color(display-p3 0.1176 0.1176 0.1176);stroke-opacity:1;" stroke-width="14.5676"/>
</g>
<g id="Group_3">
<path id="Vector_4" d="M560.826 448.041C560.826 452.63 559.012 456.833 556.01 459.91C553.009 462.987 548.843 464.907 544.223 464.907C539.604 464.907 535.438 462.987 532.436 459.91C529.434 456.833 527.621 452.63 527.621 448.041C527.621 443.453 529.434 439.249 532.436 436.172C535.438 433.095 539.604 431.175 544.223 431.175C548.843 431.175 553.009 433.095 556.01 436.172C559.012 439.249 560.826 443.453 560.826 448.041Z" stroke="#1E1E1E" style="stroke:#1E1E1E;stroke:color(display-p3 0.1176 0.1176 0.1176);stroke-opacity:1;" stroke-width="14.5676"/>
</g>
<g id="Group_4">
<path id="Vector_5" d="M499.903 396.197C499.903 400.786 498.089 404.989 495.087 408.066C492.086 411.143 487.92 413.064 483.3 413.064C478.68 413.064 474.514 411.143 471.513 408.066C468.511 404.989 466.698 400.786 466.698 396.197C466.698 391.609 468.511 387.405 471.513 384.328C474.514 381.251 478.68 379.331 483.3 379.331C487.92 379.331 492.086 381.251 495.087 384.328C498.089 387.405 499.903 391.609 499.903 396.197Z" stroke="#1E1E1E" style="stroke:#1E1E1E;stroke:color(display-p3 0.1176 0.1176 0.1176);stroke-opacity:1;" stroke-width="14.5676"/>
</g>
</g>
</svg>
