<svg width="695" height="684" viewBox="0 0 695 684" fill="none" xmlns="http://www.w3.org/2000/svg">
<g id="Mesothelial_cell 1">
<path id="Vector" d="M382.62 122.434C375.34 120.194 362.218 118.017 362.218 118.017L362.087 118.016H361.968L361.623 118.014C361.32 118.013 360.872 118.011 360.295 118.01C359.139 118.009 357.46 118.009 355.367 118.017C351.18 118.034 345.33 118.084 338.678 118.216C325.392 118.481 308.831 119.074 295.915 120.398C281.732 121.853 266.194 123.813 252.958 126.026C246.341 127.133 240.273 128.307 235.224 129.52C230.228 130.719 226.053 131.997 223.335 133.356C220.641 134.703 218.118 136.57 215.734 138.51C214.612 139.424 213.494 140.375 212.396 141.31L212.18 141.494C211.004 142.495 209.847 143.477 208.679 144.417C203.942 148.23 199.466 150.967 194.41 150.967C191.691 150.967 188.039 151.906 184.097 153.449C180.091 155.017 175.564 157.298 171.034 160.182C162.017 165.92 152.719 174.214 147.599 184.319C145.774 187.92 144.267 192.728 143.232 196.52C142.708 198.439 142.292 200.142 142.008 201.366C141.902 201.823 141.814 202.214 141.745 202.525C139.605 204.537 138.051 207.411 136.847 210.067C136.162 211.579 135.547 213.124 134.988 214.541C134.935 214.677 134.882 214.812 134.83 214.945C134.326 216.224 133.876 217.367 133.438 218.354C131.513 222.686 127.189 227.433 122.062 232.265C119.829 234.37 117.509 236.432 115.247 238.442C114.947 238.709 114.648 238.975 114.351 239.239C111.829 241.484 109.394 243.67 107.357 245.706C104.621 248.442 102.206 252.4 100.308 256.408C98.3962 260.443 96.9152 264.726 96.1322 268.253C96.0002 268.844 95.7302 269.615 95.3432 270.609C95.2312 270.896 95.1082 271.205 94.9802 271.527C94.6952 272.243 94.3852 273.025 94.1112 273.777C93.7082 274.887 93.3202 276.108 93.1142 277.315C92.9122 278.503 92.8492 279.884 93.2932 281.216C94.1392 283.755 94.5372 286.406 93.7912 288.177C93.1222 289.766 92.9072 291.63 92.9092 293.448C92.9122 295.298 93.1422 297.281 93.4962 299.214C94.2022 303.065 95.4442 306.953 96.6152 309.556C100.284 317.709 102.406 326.272 99.0962 333.555C97.9732 336.025 98.5552 338.629 98.9882 340.43C99.0462 340.674 99.1042 340.909 99.1592 341.136C99.5802 342.859 99.8822 344.097 99.7492 345.297C99.5522 347.065 99.2632 348.728 98.9622 350.459C98.8572 351.062 98.7502 351.673 98.6462 352.301C98.2502 354.676 97.9032 357.181 97.9032 359.895C97.9032 361.645 97.7342 363.272 97.5172 364.897C97.4512 365.388 97.3782 365.895 97.3042 366.411C97.1422 367.54 96.9742 368.709 96.8632 369.838C96.5202 373.299 96.6302 376.944 98.5492 381.262C99.3392 383.04 99.7042 385.197 100.17 387.943C100.263 388.494 100.36 389.069 100.466 389.669C101.067 393.085 101.913 397.027 104.032 400.843C104.722 402.087 105.485 403.018 106.08 403.744C106.168 403.851 106.252 403.954 106.332 404.052C106.954 404.822 107.406 405.446 107.77 406.365C108.157 407.342 108.101 408.263 107.989 409.795L107.985 409.855C107.883 411.251 107.732 413.318 108.878 415.381C110.92 419.056 111.978 421.069 112.592 423.254C113.2 425.416 113.409 427.885 113.409 432.473C113.409 441.44 118.161 448.06 123.833 453.731C132.085 461.984 139.416 467.452 149.584 473.101C150.375 473.54 150.92 474.204 151.827 475.401L151.898 475.494C152.74 476.606 153.871 478.1 155.697 479.267C158.696 481.185 161.725 481.328 164.121 481.402L164.347 481.409C166.758 481.482 168.396 481.532 169.965 482.377C173.707 484.393 175.255 486.424 177.707 489.641C178.102 490.16 178.521 490.71 178.976 491.295C180.583 493.362 182.349 494.368 183.928 495.153C184.185 495.281 184.431 495.401 184.669 495.517C185.9 496.117 186.895 496.601 187.959 497.492C190.903 499.956 192.751 502.422 194.529 505.112C194.918 505.699 195.308 506.308 195.711 506.934C197.13 509.144 198.692 511.575 200.781 514.081C201.957 515.493 202.656 516.947 203.5 518.751L203.556 518.871C204.374 520.619 205.329 522.659 206.97 524.779C207.13 524.987 207.286 525.189 207.439 525.387C209.203 527.677 210.533 529.404 213.241 531.479C218.24 535.311 224.289 534.664 228.953 534.059C229.309 534.012 229.657 533.966 229.997 533.921C232.036 533.65 233.798 533.416 235.41 533.428C237.247 533.441 238.493 533.783 239.394 534.483C244.204 538.225 250.335 540.026 256.221 541.364C257.952 541.758 259.65 542.11 261.306 542.454C265.483 543.32 269.399 544.133 272.917 545.412C274.785 546.091 276.856 547.096 279.142 548.205C280.354 548.793 281.625 549.41 282.959 550.023C286.55 551.674 290.64 553.316 294.231 553.316C296.311 553.316 298.373 552.884 300.046 552.534C300.594 552.419 301.101 552.313 301.552 552.234C303.53 551.887 305.077 551.862 306.729 552.645C309.624 554.016 312.424 554.901 315.36 555.03C318.319 555.159 321.232 554.513 324.345 553.09C328.426 551.224 332.855 551.166 337.877 551.454C338.634 551.498 339.409 551.55 340.198 551.603C344.462 551.889 349.143 552.203 353.709 551.334C356.759 550.753 358.556 550.453 360.267 550.417C361.93 550.382 363.615 550.597 366.375 551.21C368.177 551.611 370.119 551.349 371.888 550.886C373.694 550.413 375.567 549.662 377.333 548.854C379.107 548.042 380.848 547.137 382.381 546.334L382.744 546.143C384.152 545.405 385.324 544.79 386.249 544.374C391.058 542.209 395.631 540.71 400.332 539.168L400.396 539.147C405.095 537.607 409.922 536.021 415.009 533.709C416.898 532.85 418.619 531.838 420.061 530.99C420.76 530.578 421.394 530.206 421.95 529.908C423.774 528.929 425.534 528.25 428.104 528.115C434.861 527.759 442.5 524.764 447.982 521.525C450.705 519.916 452.472 519.068 454.082 518.547C455.684 518.029 457.248 517.795 459.665 517.553C461.634 517.356 463.515 516.068 465.014 514.811C466.62 513.463 468.266 511.727 469.799 509.985C471.215 508.375 472.589 506.695 473.791 505.226L474.104 504.844C475.418 503.239 476.433 502.015 477.121 501.327C478.992 499.456 481.137 497.779 483.407 496.003C484.232 495.358 485.073 494.7 485.923 494.015C488.987 491.549 492.126 488.761 494.107 485.293C496.459 481.178 500.602 476.067 504.001 471.876C504.688 471.028 505.344 470.219 505.949 469.462C507.358 467.701 508.647 465.718 509.879 463.741C510.267 463.118 510.647 462.5 511.024 461.886C511.871 460.507 512.706 459.149 513.593 457.803C516.153 453.914 518.82 450.656 522.225 448.765C526.201 446.556 530.362 441.637 533.67 436.624C537.017 431.552 539.834 425.852 540.881 421.665C544.294 408.011 546.577 396.76 549.109 380.635C549.343 379.146 549.597 377.802 549.843 376.5C550.418 373.457 550.949 370.646 551.076 366.761C551.143 364.716 551.025 363.202 550.9 361.74L550.878 361.49C550.761 360.135 550.647 358.808 550.647 356.987C550.647 353.889 551.238 351.084 551.872 348.069C552.002 347.452 552.134 346.827 552.263 346.188C553.002 342.527 553.609 338.547 552.633 334.155C552.373 332.984 552.335 331.583 552.389 329.961C552.407 329.423 552.438 328.822 552.471 328.2C552.526 327.126 552.585 325.988 552.585 325.006C552.585 322.444 551.547 320.41 550.676 318.846C550.539 318.6 550.407 318.367 550.281 318.144C549.538 316.828 549.003 315.879 548.757 314.772C548.329 312.848 547.867 310.992 547.416 309.177C546.079 303.804 544.832 298.792 544.832 293.455C544.832 292.484 544.934 291.645 545.053 290.664C545.122 290.096 545.196 289.481 545.26 288.765C545.419 286.982 545.445 284.93 544.703 282.709L544.665 282.595L544.617 282.485C543.9 280.872 543.504 279.96 543.253 279.036C543.019 278.171 542.894 277.21 542.894 275.579C542.894 268.345 542.592 263.773 541.004 256.623C537.762 242.035 528.925 229.563 518.902 219.54C517.071 217.709 515.677 215.612 514.139 213.299C513.732 212.687 513.315 212.06 512.878 211.419C510.866 208.473 508.484 205.362 504.834 203.215C503.869 202.648 503.203 201.587 502.026 199.678C500.991 198 490.543 189.553 489.172 187.791C488.623 187.085 487.523 185.937 486.441 184.807C486.048 184.396 485.656 183.988 485.295 183.604C484.562 182.826 477.037 175.41 474.864 173.638C470.52 170.096 464.631 165.368 458.463 160.637C452.303 155.912 435.012 144.25 432.829 143.159C431.737 142.613 430.699 142.157 429.749 141.833C428.828 141.519 420.231 139.677 416.829 137.409C416.19 136.984 415.531 136.526 414.85 136.054C412.091 134.14 399.993 128.704 397.249 127.653C392.472 125.824 387.706 123.999 382.62 122.434Z" stroke="#1E1E1E" style="stroke:#1E1E1E;stroke:color(display-p3 0.1176 0.1176 0.1176);stroke-opacity:1;" stroke-width="20" stroke-linecap="round"/>
<path id="Vector_2" d="M388.5 327C388.5 380.734 342.726 424.5 286 424.5C229.274 424.5 183.5 380.734 183.5 327C183.5 273.266 229.274 229.5 286 229.5C342.726 229.5 388.5 273.266 388.5 327Z" stroke="black" style="stroke:black;stroke-opacity:1;" stroke-width="15"/>
</g>
</svg>
