<svg width="695" height="684" viewBox="0 0 695 684" fill="none" xmlns="http://www.w3.org/2000/svg">
<g id="Myofibroblast 1">
<path id="Vector" d="M101 228.809C102.459 229.118 103.053 230.179 104.079 231.223C115.809 243.142 129.541 253.266 142.515 263.562C158.39 276.159 175.299 286.585 192.356 297.228C228.734 319.926 266.215 340.223 304.756 358.588C349.826 380.064 395.203 399.963 443.615 411.259C497.24 423.772 550.242 437.809 605 424.292" stroke="#818181" stroke-opacity="0.35" style="stroke:#818181;stroke:color(display-p3 0.5059 0.5059 0.5059);stroke-opacity:0.35;" stroke-width="8" stroke-linecap="round"/>
<path id="Vector_2" d="M113.603 257.956C120.013 270.264 128.757 281.15 137.962 291.48C163.732 320.4 192.595 348.164 227.984 365.041C274.944 387.438 326.514 398.373 376.191 412.796C400.952 419.984 426.127 426.675 451.742 430.04C484.315 434.32 516.397 432.256 548.818 427.99" stroke="#818181" stroke-opacity="0.35" style="stroke:#818181;stroke:color(display-p3 0.5059 0.5059 0.5059);stroke-opacity:0.35;" stroke-width="8" stroke-linecap="round"/>
<path id="Vector_3" d="M271 245.975C194.112 240.824 83.3738 197.211 59.9538 187.683C58.9448 187.273 58.0548 188.562 58.7918 189.363C76.3748 208.486 158.003 301.936 147 377.316C140.272 423.409 64.6838 520.513 48.8838 540.397C48.2128 541.242 49.1368 542.423 50.1028 541.942C78.6448 527.705 249.168 444.043 341.5 430.437C436.809 416.391 620.114 447.78 646.345 452.433C647.321 452.606 647.852 451.4 647.144 450.705C633.245 437.077 562.319 366.214 555 332.368C544.903 285.676 632.963 161.78 647.49 141.752C648.081 140.937 647.179 139.917 646.242 140.286C614.457 152.771 358.946 251.867 271 245.975Z" stroke="#1E1E1E" style="stroke:#1E1E1E;stroke:color(display-p3 0.1176 0.1176 0.1176);stroke-opacity:1;" stroke-width="20"/>
<path id="Vector_4" d="M118 495C118.212 493.237 120.827 490.476 121.884 489.178C139.887 467.06 160.913 446.244 183.092 428.688C224.328 396.048 265.923 364.656 310.944 337.793C364.138 306.053 421.226 280.756 480.586 264.688C510.765 256.519 539.781 249 571 249" stroke="#818181" stroke-opacity="0.35" style="stroke:#818181;stroke:color(display-p3 0.5059 0.5059 0.5059);stroke-opacity:0.35;" stroke-width="8" stroke-linecap="round"/>
<path id="Vector_5" d="M145.132 233.116C166.858 252.205 192.857 269.103 218.754 284.22C246.976 300.695 276.075 314.562 306.797 327.587C381.115 359.094 458.393 381.416 541.259 382.843" stroke="#818181" stroke-opacity="0.35" style="stroke:#818181;stroke:color(display-p3 0.5059 0.5059 0.5059);stroke-opacity:0.35;" stroke-width="8" stroke-linecap="round"/>
<path id="Vector_6" d="M612.852 161C569.046 175.602 525.934 193.359 482.733 209.719C426.168 231.14 369.116 253.985 315.895 282.979C275.667 304.894 238.259 328.948 203.262 358.529C173.569 383.626 151.54 415.51 129.882 447.526" stroke="#818181" stroke-opacity="0.35" style="stroke:#818181;stroke:color(display-p3 0.5059 0.5059 0.5059);stroke-opacity:0.35;" stroke-width="8" stroke-linecap="round"/>
<path id="Vector_7" d="M556 214C554.242 214.226 550.312 216.362 548.792 216.92C519.192 227.786 490.258 240.52 461.034 252.396C409.497 273.339 359.157 297.607 310.981 325.781C267.038 351.48 225.211 379.879 187.183 414.2C157.277 441.191 131.388 473.25 109 507" stroke="#818181" stroke-opacity="0.35" style="stroke:#818181;stroke:color(display-p3 0.5059 0.5059 0.5059);stroke-opacity:0.35;" stroke-width="8" stroke-linecap="round"/>
<path id="Vector_8" d="M172.21 236.973C184.722 250.875 200.006 260.815 215.141 271.763C240.119 289.833 268.305 302.036 297.022 312.885C329.183 325.035 365.883 334.737 400.128 337.908C448.282 342.367 497.856 344.265 542.306 322.713" stroke="#818181" stroke-opacity="0.35" style="stroke:#818181;stroke:color(display-p3 0.5059 0.5059 0.5059);stroke-opacity:0.35;" stroke-width="8" stroke-linecap="round"/>
<path id="Vector_9" d="M174.774 464.757C175.596 462.865 183.228 461.16 183.403 461.098C215.64 449.7 247.977 439.021 280.014 424.699C319.821 406.904 359.018 385.648 397.96 361.834C434.46 339.514 470.74 313.939 505.51 284.807C539.666 256.189 570.332 218.49 599 179" stroke="#818181" stroke-opacity="0.35" style="stroke:#818181;stroke:color(display-p3 0.5059 0.5059 0.5059);stroke-opacity:0.35;" stroke-width="8" stroke-linecap="round"/>
<path id="Vector_10" d="M420 341.6C420 355.678 412.141 368.644 398.992 378.185C385.845 387.723 367.56 393.7 347.25 393.7C326.94 393.7 308.655 387.723 295.508 378.185C282.359 368.644 274.5 355.678 274.5 341.6C274.5 327.522 282.359 314.556 295.508 305.015C308.655 295.477 326.94 289.5 347.25 289.5C367.56 289.5 385.845 295.477 398.992 305.015C412.141 314.556 420 327.522 420 341.6Z" stroke="#1E1E1E" style="stroke:#1E1E1E;stroke:color(display-p3 0.1176 0.1176 0.1176);stroke-opacity:1;" stroke-width="15"/>
</g>
</svg>
