<svg width="695" height="684" viewBox="0 0 695 684" fill="none" xmlns="http://www.w3.org/2000/svg">
<g id="t-cell 1">
<path id="Vector" d="M356.5 574.5C481.869 574.5 583.5 472.869 583.5 347.5C583.5 222.131 481.869 120.5 356.5 120.5C231.131 120.5 129.5 222.131 129.5 347.5C129.5 472.869 231.131 574.5 356.5 574.5Z" stroke="#1E1E1E" style="stroke:#1E1E1E;stroke:color(display-p3 0.1176 0.1176 0.1176);stroke-opacity:1;" stroke-width="20"/>
<path id="Vector_2" d="M440 413.5C493.848 413.5 537.5 369.848 537.5 316C537.5 262.152 493.848 218.5 440 218.5C386.152 218.5 342.5 262.152 342.5 316C342.5 369.848 386.152 413.5 440 413.5Z" stroke="#1E1E1E" style="stroke:#1E1E1E;stroke:color(display-p3 0.1176 0.1176 0.1176);stroke-opacity:1;" stroke-width="15"/>
<path id="Vector_3" d="M246.336 568.699C247.257 575.471 248.693 586.039 248.693 586.039L232.441 606.914M246.336 568.699C238.21 569.803 225.527 571.527 225.527 571.527L210.983 590.207M246.336 568.699C250.349 563.424 257.78 554 257.78 554" stroke="#1E1E1E" style="stroke:#1E1E1E;stroke:color(display-p3 0.1176 0.1176 0.1176);stroke-opacity:1;" stroke-width="15"/>
<path id="Vector_4" d="M572.287 468.05C578.836 466.097 589.057 463.049 589.057 463.049L612.187 475.891M572.287 468.05C574.63 475.909 578.288 488.174 578.288 488.174L598.986 499.666M572.287 468.05C566.457 464.898 556 459.008 556 459.008" stroke="#1E1E1E" style="stroke:#1E1E1E;stroke:color(display-p3 0.1176 0.1176 0.1176);stroke-opacity:1;" stroke-width="15"/>
<path id="Vector_5" d="M149.347 481.103C148.219 487.844 146.46 498.364 146.46 498.364L124.751 513.484M149.347 481.103C141.259 479.75 128.635 477.638 128.635 477.638L109.208 491.17M149.347 481.103C154.742 477.255 164.633 470.456 164.633 470.456" stroke="#1E1E1E" style="stroke:#1E1E1E;stroke:color(display-p3 0.1176 0.1176 0.1176);stroke-opacity:1;" stroke-width="15"/>
<path id="Vector_6" d="M574.75 231.648C577.192 225.265 581.002 215.303 581.002 215.303L605.278 204.786M574.75 231.648C582.41 234.578 594.364 239.151 594.364 239.151L616.088 229.74M574.75 231.648C568.699 234.35 557.657 239.053 557.657 239.053" stroke="#1E1E1E" style="stroke:#1E1E1E;stroke:color(display-p3 0.1176 0.1176 0.1176);stroke-opacity:1;" stroke-width="15"/>
<path id="Vector_7" d="M143.55 220.1C137.104 222.37 127.044 225.913 127.044 225.913L103.315 214.216M143.55 220.1C140.826 212.365 136.574 200.293 136.574 200.293L115.34 189.824M143.55 220.1C149.527 222.964 160.259 228.337 160.259 228.337" stroke="#1E1E1E" style="stroke:#1E1E1E;stroke:color(display-p3 0.1176 0.1176 0.1176);stroke-opacity:1;" stroke-width="15"/>
<path id="Vector_8" d="M242.282 129.795C235.493 129.013 224.897 127.794 224.897 127.794L208.686 106.887M242.282 129.795C243.22 121.647 244.684 108.932 244.684 108.932L230.176 90.2227M242.282 129.795C246.402 134.986 253.698 144.516 253.698 144.516" stroke="#1E1E1E" style="stroke:#1E1E1E;stroke:color(display-p3 0.1176 0.1176 0.1176);stroke-opacity:1;" stroke-width="15"/>
<path id="Vector_9" d="M467.895 128.503C465.519 122.095 461.811 112.094 461.811 112.094L473.117 88.1768M467.895 128.503C475.584 125.652 487.585 121.203 487.585 121.203L497.703 99.7988M467.895 128.503C465.13 134.526 459.933 145.345 459.933 145.345" stroke="#1E1E1E" style="stroke:#1E1E1E;stroke:color(display-p3 0.1176 0.1176 0.1176);stroke-opacity:1;" stroke-width="15"/>
<path id="Vector_10" d="M357.401 595.624C362.397 600.287 370.194 607.565 370.194 607.565L370.807 634.013M357.401 595.624C351.805 601.619 343.071 610.975 343.071 610.975L343.62 634.643M357.401 595.624C357.173 589 356.969 577 356.969 577" stroke="#1E1E1E" style="stroke:#1E1E1E;stroke:color(display-p3 0.1176 0.1176 0.1176);stroke-opacity:1;" stroke-width="15"/>
<path id="Vector_11" d="M474.953 565.361C481.497 567.333 491.709 570.41 491.709 570.41L503.961 593.857M474.953 565.361C472.587 573.213 468.895 585.468 468.895 585.468L479.859 606.451M474.953 565.361C471.818 559.522 466.326 548.851 466.326 548.851" stroke="#1E1E1E" style="stroke:#1E1E1E;stroke:color(display-p3 0.1176 0.1176 0.1176);stroke-opacity:1;" stroke-width="15"/>
<path id="Vector_12" d="M357.049 99.2837C352.162 94.5057 344.536 87.0488 344.536 87.0488V60.5938M357.049 99.2837C362.782 93.4197 371.73 84.2677 371.73 84.2677V60.5938M357.049 99.2837C357.123 105.911 357.049 117.912 357.049 117.912" stroke="#1E1E1E" style="stroke:#1E1E1E;stroke:color(display-p3 0.1176 0.1176 0.1176);stroke-opacity:1;" stroke-width="15"/>
<path id="Vector_13" d="M108.285 348.311C103.645 353.329 96.405 361.16 96.405 361.16L69.96 361.899M108.285 348.311C102.263 342.743 92.866 334.054 92.866 334.054L69.2 334.715M108.285 348.311C114.907 348.051 126.906 347.791 126.906 347.791" stroke="#1E1E1E" style="stroke:#1E1E1E;stroke:color(display-p3 0.1176 0.1176 0.1176);stroke-opacity:1;" stroke-width="15"/>
<path id="Vector_14" d="M604.621 347.496C609.252 342.47 616.48 334.627 616.48 334.627L642.924 333.845M604.621 347.496C610.651 353.053 620.063 361.727 620.063 361.727L643.728 361.028M604.621 347.496C597.999 347.766 586 348.046 586 348.046" stroke="#1E1E1E" style="stroke:#1E1E1E;stroke:color(display-p3 0.1176 0.1176 0.1176);stroke-opacity:1;" stroke-width="15"/>
</g>
</svg>
